<svg width="498" height="234" viewBox="0 0 498 234" fill="none" xmlns="http://www.w3.org/2000/svg">
<path d="M0.169922 20.9141V13.9961L22.2344 5.5957V10.4941L4.33789 17.4766L22.2344 24.4375V29.3145L0.169922 20.9141ZM132.299 29.3145V24.4375L150.174 17.4766L132.299 10.4941V5.5957L154.363 13.9961V20.9141L132.299 29.3145ZM53.0215 84.9141V77.9961L75.0859 69.5957V74.4941L57.1895 81.4766L75.0859 88.4375V93.3145L53.0215 84.9141ZM422.982 93.3145V88.4375L440.857 81.4766L422.982 74.4941V69.5957L445.047 77.9961V84.9141L422.982 93.3145ZM53.0215 148.914V141.996L75.0859 133.596V138.494L57.1895 145.477L75.0859 152.438V157.314L53.0215 148.914ZM475.834 157.314V152.438L493.709 145.477L475.834 138.494V133.596L497.898 141.996V148.914L475.834 157.314ZM0.169922 212.914V205.996L22.2344 197.596V202.494L4.33789 209.477L22.2344 216.438V221.314L0.169922 212.914ZM158.725 221.314V216.438L176.6 209.477L158.725 202.494V197.596L180.789 205.996V212.914L158.725 221.314Z" fill="#FCEFEE"/>
<path d="M27.4336 32C27.5482 30.0521 27.6055 28.362 27.6055 26.9297V0.117188H33.6426V8.58203L33.5996 12.4062H33.6426C34.2298 11.1029 35.1107 10.0931 36.2852 9.37695C37.474 8.66081 38.8633 8.30273 40.4531 8.30273C43.1172 8.30273 45.1654 9.35547 46.5977 11.4609C48.0299 13.5664 48.7461 16.5456 48.7461 20.3984C48.7461 24.0365 47.987 26.9512 46.4688 29.1426C44.9505 31.334 42.8809 32.4297 40.2598 32.4297C38.7702 32.4297 37.4596 32.0788 36.3281 31.377C35.2109 30.6608 34.3301 29.6081 33.6855 28.2188H33.5996C33.5996 28.6914 33.5638 29.3503 33.4922 30.1953C33.4349 31.026 33.3633 31.6276 33.2773 32H27.4336ZM33.5566 20.248C33.5566 21.9668 33.7428 23.4206 34.1152 24.6094C34.502 25.7982 35.0391 26.7148 35.7266 27.3594C36.4284 27.9896 37.2305 28.3047 38.1328 28.3047C39.5078 28.3047 40.5677 27.6458 41.3125 26.3281C42.0716 25.0104 42.4512 23.0339 42.4512 20.3984C42.4512 17.7773 42.0788 15.7936 41.334 14.4473C40.6035 13.0866 39.5221 12.4062 38.0898 12.4062C36.6862 12.4062 35.5762 13.0938 34.7598 14.4688C33.9577 15.8438 33.5566 17.7702 33.5566 20.248ZM75.2793 20.3555C75.2793 24.2083 74.3053 27.1875 72.3574 29.293C70.4095 31.3841 67.6094 32.4297 63.957 32.4297C60.4336 32.4297 57.6979 31.3841 55.75 29.293C53.8021 27.1875 52.8281 24.2083 52.8281 20.3555C52.8281 16.5169 53.7949 13.5521 55.7285 11.4609C57.6621 9.36979 60.4479 8.32422 64.0859 8.32422C71.5482 8.32422 75.2793 12.3346 75.2793 20.3555ZM68.9629 20.3555C68.9629 17.6055 68.5977 15.6074 67.8672 14.3613C67.1367 13.1009 65.9049 12.4707 64.1719 12.4707C62.3958 12.4707 61.1139 13.1009 60.3262 14.3613C59.5527 15.6217 59.166 17.6198 59.166 20.3555C59.166 23.1198 59.5599 25.1393 60.3477 26.4141C61.1497 27.6745 62.3314 28.3047 63.8926 28.3047C65.6686 28.3047 66.9577 27.6816 67.7598 26.4355C68.5618 25.1751 68.9629 23.1484 68.9629 20.3555ZM94.8301 32C94.7728 31.7852 94.7012 31.248 94.6152 30.3887C94.5436 29.515 94.5078 28.7917 94.5078 28.2188H94.4219C93.6628 29.7513 92.7246 30.8398 91.6074 31.4844C90.4902 32.1146 89.1654 32.4297 87.6328 32.4297C85.069 32.4297 83.0495 31.3555 81.5742 29.207C80.099 27.0586 79.3613 24.1296 79.3613 20.4199C79.3613 16.6243 80.099 13.6667 81.5742 11.5469C83.0638 9.42708 85.1621 8.36719 87.8691 8.36719C89.4017 8.36719 90.7337 8.7181 91.8652 9.41992C92.9967 10.1074 93.8633 11.1243 94.4648 12.4707H94.5078L94.4648 8.64648V0.117188H100.502V26.9297C100.502 28.362 100.559 30.0521 100.674 32H94.8301ZM94.5508 20.2695C94.5508 17.7917 94.1497 15.8724 93.3477 14.5117C92.5456 13.151 91.4355 12.4707 90.0176 12.4707C88.5853 12.4707 87.4967 13.1439 86.752 14.4902C86.0215 15.8223 85.6562 17.7988 85.6562 20.4199C85.6562 23.0553 86.0286 25.0319 86.7734 26.3496C87.5326 27.653 88.5996 28.3047 89.9746 28.3047C90.8626 28.3047 91.6576 27.9896 92.3594 27.3594C93.0612 26.7148 93.5983 25.7982 93.9707 24.6094C94.3574 23.4206 94.5508 21.974 94.5508 20.2695ZM110.686 41.1309C109.167 41.1309 107.864 41.0378 106.775 40.8516V36.5547L107.871 36.6621L108.967 36.7266C109.826 36.7266 110.535 36.5905 111.094 36.3184C111.667 36.0462 112.175 35.5951 112.619 34.9648C113.077 34.3346 113.586 33.2676 114.145 31.7637L104.52 8.75391H110.9L114.982 20.0762C115.555 21.6374 116.279 24.0293 117.152 27.252L117.346 26.457L119.086 20.1621L122.953 8.75391H129.27L119.645 33.2246C118.499 36.1751 117.245 38.2305 115.885 39.3906C114.524 40.5508 112.791 41.1309 110.686 41.1309ZM94.3789 96V83.668H86.5801V96H80.2422V67.0176H86.5801V78.4258H94.3789V67.0176H100.717V96H94.3789ZM117.152 96.4297C113.543 96.4297 110.757 95.3698 108.795 93.25C106.833 91.1159 105.852 88.1224 105.852 84.2695C105.852 81.6914 106.31 79.5143 107.227 77.7383C108.158 75.9622 109.475 74.6159 111.18 73.6992C112.884 72.7826 114.904 72.3242 117.238 72.3242C120.633 72.3242 123.268 73.4557 125.145 75.7188C127.021 77.9818 127.959 81.1973 127.959 85.3652V85.5371H112.189C112.189 87.6426 112.655 89.3112 113.586 90.543C114.531 91.7747 115.82 92.3906 117.453 92.3906C118.513 92.3906 119.451 92.1686 120.268 91.7246C121.084 91.2663 121.635 90.5645 121.922 89.6191L127.615 90.1133C126.827 92.1328 125.517 93.694 123.684 94.7969C121.85 95.8854 119.673 96.4297 117.152 96.4297ZM117.152 76.127C115.677 76.127 114.503 76.6283 113.629 77.6309C112.755 78.6191 112.29 79.9941 112.232 81.7559H122.115C122.015 80.0371 121.521 78.6693 120.633 77.6523C119.759 76.6354 118.599 76.127 117.152 76.127ZM147.188 91.918H154.771V96H132.664V91.918H141.15V68.1992H134.92V64.1172H147.188V91.918ZM173.613 91.918H181.197V96H159.09V91.918H167.576V68.1992H161.346V64.1172H173.613V91.918ZM207.408 84.3555C207.408 88.2083 206.434 91.1875 204.486 93.293C202.538 95.3841 199.738 96.4297 196.086 96.4297C192.562 96.4297 189.827 95.3841 187.879 93.293C185.931 91.1875 184.957 88.2083 184.957 84.3555C184.957 80.5169 185.924 77.5521 187.857 75.4609C189.791 73.3698 192.577 72.3242 196.215 72.3242C203.677 72.3242 207.408 76.3346 207.408 84.3555ZM201.092 84.3555C201.092 81.6055 200.727 79.6074 199.996 78.3613C199.266 77.1009 198.034 76.4707 196.301 76.4707C194.525 76.4707 193.243 77.1009 192.455 78.3613C191.682 79.6217 191.295 81.6198 191.295 84.3555C191.295 87.1198 191.689 89.1393 192.477 90.4141C193.279 91.6745 194.46 92.3047 196.021 92.3047C197.798 92.3047 199.087 91.6816 199.889 90.4355C200.691 89.1751 201.092 87.1484 201.092 84.3555ZM216.367 87.2129V81.9707H228.828V87.2129H216.367ZM257.918 96H252.676L249.604 85.8809C249.245 84.735 249.052 84.0046 249.023 83.6895C249.009 83.8184 248.93 84.1549 248.787 84.6992C248.644 85.2292 247.455 88.9961 245.221 96H240L236.068 72.7539H240.967L242.75 85.7949C243.022 87.972 243.158 89.5905 243.158 90.6504L243.588 89.0605L246.961 78.4473H251.107L254.115 88.2227C254.33 88.9388 254.538 89.748 254.738 90.6504C254.738 89.7624 254.81 88.7383 254.953 87.5781C255.096 86.418 255.827 81.4766 257.145 72.7539H262L257.918 96ZM286.686 84.3555C286.686 88.2083 285.712 91.1875 283.764 93.293C281.816 95.3841 279.016 96.4297 275.363 96.4297C271.84 96.4297 269.104 95.3841 267.156 93.293C265.208 91.1875 264.234 88.2083 264.234 84.3555C264.234 80.5169 265.201 77.5521 267.135 75.4609C269.068 73.3698 271.854 72.3242 275.492 72.3242C282.954 72.3242 286.686 76.3346 286.686 84.3555ZM280.369 84.3555C280.369 81.6055 280.004 79.6074 279.273 78.3613C278.543 77.1009 277.311 76.4707 275.578 76.4707C273.802 76.4707 272.52 77.1009 271.732 78.3613C270.959 79.6217 270.572 81.6198 270.572 84.3555C270.572 87.1198 270.966 89.1393 271.754 90.4141C272.556 91.6745 273.738 92.3047 275.299 92.3047C277.075 92.3047 278.364 91.6816 279.166 90.4355C279.968 89.1751 280.369 87.1484 280.369 84.3555ZM311.908 77.7812C310.304 77.5091 308.786 77.373 307.354 77.373C305.119 77.373 303.343 78.2181 302.025 79.9082C300.722 81.5983 300.07 83.8255 300.07 86.5898V96H294.055V80.9395C294.055 79.8509 293.954 78.569 293.754 77.0938C293.568 75.6185 293.296 74.1719 292.938 72.7539H298.76C299.275 74.6159 299.605 76.2487 299.748 77.6523H299.834C300.55 75.7044 301.517 74.3294 302.734 73.5273C303.952 72.7253 305.535 72.3242 307.482 72.3242C308.972 72.3242 310.447 72.446 311.908 72.6895V77.7812ZM332.168 91.918H339.752V96H317.645V91.918H326.131V68.1992H319.9V64.1172H332.168V91.918ZM359.088 96C359.031 95.7852 358.959 95.248 358.873 94.3887C358.801 93.515 358.766 92.7917 358.766 92.2188H358.68C357.921 93.7513 356.982 94.8398 355.865 95.4844C354.748 96.1146 353.423 96.4297 351.891 96.4297C349.327 96.4297 347.307 95.3555 345.832 93.207C344.357 91.0586 343.619 88.1296 343.619 84.4199C343.619 80.6243 344.357 77.6667 345.832 75.5469C347.322 73.4271 349.42 72.3672 352.127 72.3672C353.66 72.3672 354.992 72.7181 356.123 73.4199C357.255 74.1074 358.121 75.1243 358.723 76.4707H358.766L358.723 72.6465V64.1172H364.76V90.9297C364.76 92.362 364.817 94.0521 364.932 96H359.088ZM358.809 84.2695C358.809 81.7917 358.408 79.8724 357.605 78.5117C356.803 77.151 355.693 76.4707 354.275 76.4707C352.843 76.4707 351.755 77.1439 351.01 78.4902C350.279 79.8223 349.914 81.7988 349.914 84.4199C349.914 87.0553 350.286 89.0319 351.031 90.3496C351.79 91.653 352.857 92.3047 354.232 92.3047C355.12 92.3047 355.915 91.9896 356.617 91.3594C357.319 90.7148 357.856 89.7982 358.229 88.6094C358.615 87.4206 358.809 85.974 358.809 84.2695ZM80.6504 131.018H100.33V135.916H93.6484V155.102H100.33V160H80.6504V155.102H87.332V135.916H80.6504V131.018ZM110.664 151.213V145.971H123.125V151.213H110.664ZM147.188 155.918H154.771V160H132.664V155.918H141.15V132.199H134.92V128.117H147.188V155.918ZM180.982 148.355C180.982 152.208 180.008 155.188 178.061 157.293C176.113 159.384 173.312 160.43 169.66 160.43C166.137 160.43 163.401 159.384 161.453 157.293C159.505 155.188 158.531 152.208 158.531 148.355C158.531 144.517 159.498 141.552 161.432 139.461C163.365 137.37 166.151 136.324 169.789 136.324C177.251 136.324 180.982 140.335 180.982 148.355ZM174.666 148.355C174.666 145.605 174.301 143.607 173.57 142.361C172.84 141.101 171.608 140.471 169.875 140.471C168.099 140.471 166.817 141.101 166.029 142.361C165.256 143.622 164.869 145.62 164.869 148.355C164.869 151.12 165.263 153.139 166.051 154.414C166.853 155.674 168.035 156.305 169.596 156.305C171.372 156.305 172.661 155.682 173.463 154.436C174.265 153.175 174.666 151.148 174.666 148.355ZM199.609 160H192.391L183.646 136.754H190.027L194.518 150.117C194.732 150.833 195.241 152.624 196.043 155.488C196.129 155.145 196.387 154.235 196.816 152.76C197.26 151.27 199.087 145.935 202.295 136.754H208.611L199.609 160ZM222.855 160.43C219.246 160.43 216.46 159.37 214.498 157.25C212.536 155.116 211.555 152.122 211.555 148.27C211.555 145.691 212.013 143.514 212.93 141.738C213.861 139.962 215.178 138.616 216.883 137.699C218.587 136.783 220.607 136.324 222.941 136.324C226.336 136.324 228.971 137.456 230.848 139.719C232.724 141.982 233.662 145.197 233.662 149.365V149.537H217.893C217.893 151.643 218.358 153.311 219.289 154.543C220.234 155.775 221.523 156.391 223.156 156.391C224.216 156.391 225.154 156.169 225.971 155.725C226.787 155.266 227.339 154.564 227.625 153.619L233.318 154.113C232.531 156.133 231.22 157.694 229.387 158.797C227.553 159.885 225.376 160.43 222.855 160.43ZM222.855 140.127C221.38 140.127 220.206 140.628 219.332 141.631C218.458 142.619 217.993 143.994 217.936 145.756H227.818C227.718 144.037 227.224 142.669 226.336 141.652C225.462 140.635 224.302 140.127 222.855 140.127ZM242.793 151.213V145.971H255.254V151.213H242.793ZM275.664 160.43C272.141 160.43 269.419 159.384 267.5 157.293C265.581 155.188 264.621 152.258 264.621 148.506C264.621 144.667 265.588 141.681 267.521 139.547C269.455 137.398 272.198 136.324 275.75 136.324C278.486 136.324 280.749 137.012 282.539 138.387C284.329 139.762 285.454 141.66 285.912 144.08L279.832 144.381C279.66 143.192 279.23 142.247 278.543 141.545C277.855 140.829 276.882 140.471 275.621 140.471C272.513 140.471 270.959 143.07 270.959 148.27C270.959 153.626 272.542 156.305 275.707 156.305C276.853 156.305 277.812 155.947 278.586 155.23C279.359 154.5 279.839 153.419 280.025 151.986L286.084 152.266C285.869 153.855 285.296 155.273 284.365 156.52C283.449 157.766 282.238 158.732 280.734 159.42C279.23 160.093 277.54 160.43 275.664 160.43ZM313.111 148.355C313.111 152.208 312.137 155.188 310.189 157.293C308.242 159.384 305.441 160.43 301.789 160.43C298.266 160.43 295.53 159.384 293.582 157.293C291.634 155.188 290.66 152.208 290.66 148.355C290.66 144.517 291.627 141.552 293.561 139.461C295.494 137.37 298.28 136.324 301.918 136.324C309.38 136.324 313.111 140.335 313.111 148.355ZM306.795 148.355C306.795 145.605 306.43 143.607 305.699 142.361C304.969 141.101 303.737 140.471 302.004 140.471C300.228 140.471 298.946 141.101 298.158 142.361C297.385 143.622 296.998 145.62 296.998 148.355C296.998 151.12 297.392 153.139 298.18 154.414C298.982 155.674 300.163 156.305 301.725 156.305C303.501 156.305 304.79 155.682 305.592 154.436C306.394 153.175 306.795 151.148 306.795 148.355ZM332.662 160C332.605 159.785 332.533 159.248 332.447 158.389C332.376 157.515 332.34 156.792 332.34 156.219H332.254C331.495 157.751 330.557 158.84 329.439 159.484C328.322 160.115 326.997 160.43 325.465 160.43C322.901 160.43 320.882 159.355 319.406 157.207C317.931 155.059 317.193 152.13 317.193 148.42C317.193 144.624 317.931 141.667 319.406 139.547C320.896 137.427 322.994 136.367 325.701 136.367C327.234 136.367 328.566 136.718 329.697 137.42C330.829 138.107 331.695 139.124 332.297 140.471H332.34L332.297 136.646V128.117H338.334V154.93C338.334 156.362 338.391 158.052 338.506 160H332.662ZM332.383 148.27C332.383 145.792 331.982 143.872 331.18 142.512C330.378 141.151 329.268 140.471 327.85 140.471C326.417 140.471 325.329 141.144 324.584 142.49C323.854 143.822 323.488 145.799 323.488 148.42C323.488 151.055 323.861 153.032 324.605 154.35C325.365 155.653 326.432 156.305 327.807 156.305C328.695 156.305 329.49 155.99 330.191 155.359C330.893 154.715 331.43 153.798 331.803 152.609C332.189 151.421 332.383 149.974 332.383 148.27ZM358.594 155.918H366.178V160H344.07V155.918H352.557V140.836H346.326V136.754H358.594V155.918ZM352.557 132.564V128.117H358.594V132.564H352.557ZM385.664 160V146.701C385.664 144.682 385.385 143.199 384.826 142.254C384.282 141.309 383.337 140.836 381.99 140.836C380.501 140.836 379.305 141.473 378.402 142.748C377.514 144.008 377.07 145.605 377.07 147.539V160H371.033V141.953C371.033 140.707 371.012 139.69 370.969 138.902C370.94 138.1 370.904 137.384 370.861 136.754H376.619C376.662 137.026 376.719 137.757 376.791 138.945C376.863 140.12 376.898 140.929 376.898 141.373H376.984C377.801 139.597 378.825 138.308 380.057 137.506C381.288 136.704 382.757 136.303 384.461 136.303C389.273 136.303 391.68 139.282 391.68 145.24V160H385.664ZM407.621 169.324C404.957 169.324 402.787 168.773 401.111 167.67C399.436 166.567 398.404 165.035 398.018 163.072L404.055 162.363C404.27 163.294 404.714 164.032 405.387 164.576C406.06 165.12 406.862 165.393 407.793 165.393C409.24 165.393 410.335 164.87 411.08 163.824C411.825 162.793 412.197 161.253 412.197 159.205V157.938L412.24 155.467H412.197C410.865 158.317 408.516 159.742 405.15 159.742C402.587 159.742 400.596 158.747 399.178 156.756C397.76 154.751 397.051 151.893 397.051 148.184C397.051 144.431 397.788 141.531 399.264 139.482C400.739 137.42 402.852 136.389 405.602 136.389C407.105 136.389 408.423 136.74 409.555 137.441C410.686 138.129 411.567 139.146 412.197 140.492H412.305C412.305 139.991 412.333 139.311 412.391 138.451C412.462 137.592 412.534 137.026 412.605 136.754H418.32C418.234 138.301 418.191 140.091 418.191 142.125V159.291C418.191 162.542 417.275 165.027 415.441 166.746C413.622 168.465 411.016 169.324 407.621 169.324ZM412.24 148.055C412.24 145.706 411.839 143.865 411.037 142.533C410.235 141.201 409.139 140.535 407.75 140.535C406.318 140.535 405.222 141.187 404.463 142.49C403.718 143.779 403.346 145.677 403.346 148.184C403.346 150.676 403.732 152.531 404.506 153.748C405.279 154.951 406.346 155.553 407.707 155.553C409.168 155.553 410.285 154.88 411.059 153.533C411.846 152.187 412.24 150.361 412.24 148.055ZM27.4336 224C27.5482 222.052 27.6055 220.362 27.6055 218.93V192.117H33.6426V200.582L33.5996 204.406H33.6426C34.2298 203.103 35.1107 202.093 36.2852 201.377C37.474 200.661 38.8633 200.303 40.4531 200.303C43.1172 200.303 45.1654 201.355 46.5977 203.461C48.0299 205.566 48.7461 208.546 48.7461 212.398C48.7461 216.036 47.987 218.951 46.4688 221.143C44.9505 223.334 42.8809 224.43 40.2598 224.43C38.7702 224.43 37.4596 224.079 36.3281 223.377C35.2109 222.661 34.3301 221.608 33.6855 220.219H33.5996C33.5996 220.691 33.5638 221.35 33.4922 222.195C33.4349 223.026 33.3633 223.628 33.2773 224H27.4336ZM33.5566 212.248C33.5566 213.967 33.7428 215.421 34.1152 216.609C34.502 217.798 35.0391 218.715 35.7266 219.359C36.4284 219.99 37.2305 220.305 38.1328 220.305C39.5078 220.305 40.5677 219.646 41.3125 218.328C42.0716 217.01 42.4512 215.034 42.4512 212.398C42.4512 209.777 42.0788 207.794 41.334 206.447C40.6035 205.087 39.5221 204.406 38.0898 204.406C36.6862 204.406 35.5762 205.094 34.7598 206.469C33.9577 207.844 33.5566 209.77 33.5566 212.248ZM75.2793 212.355C75.2793 216.208 74.3053 219.188 72.3574 221.293C70.4095 223.384 67.6094 224.43 63.957 224.43C60.4336 224.43 57.6979 223.384 55.75 221.293C53.8021 219.188 52.8281 216.208 52.8281 212.355C52.8281 208.517 53.7949 205.552 55.7285 203.461C57.6621 201.37 60.4479 200.324 64.0859 200.324C71.5482 200.324 75.2793 204.335 75.2793 212.355ZM68.9629 212.355C68.9629 209.605 68.5977 207.607 67.8672 206.361C67.1367 205.101 65.9049 204.471 64.1719 204.471C62.3958 204.471 61.1139 205.101 60.3262 206.361C59.5527 207.622 59.166 209.62 59.166 212.355C59.166 215.12 59.5599 217.139 60.3477 218.414C61.1497 219.674 62.3314 220.305 63.8926 220.305C65.6686 220.305 66.9577 219.682 67.7598 218.436C68.5618 217.175 68.9629 215.148 68.9629 212.355ZM94.8301 224C94.7728 223.785 94.7012 223.248 94.6152 222.389C94.5436 221.515 94.5078 220.792 94.5078 220.219H94.4219C93.6628 221.751 92.7246 222.84 91.6074 223.484C90.4902 224.115 89.1654 224.43 87.6328 224.43C85.069 224.43 83.0495 223.355 81.5742 221.207C80.099 219.059 79.3613 216.13 79.3613 212.42C79.3613 208.624 80.099 205.667 81.5742 203.547C83.0638 201.427 85.1621 200.367 87.8691 200.367C89.4017 200.367 90.7337 200.718 91.8652 201.42C92.9967 202.107 93.8633 203.124 94.4648 204.471H94.5078L94.4648 200.646V192.117H100.502V218.93C100.502 220.362 100.559 222.052 100.674 224H94.8301ZM94.5508 212.27C94.5508 209.792 94.1497 207.872 93.3477 206.512C92.5456 205.151 91.4355 204.471 90.0176 204.471C88.5853 204.471 87.4967 205.144 86.752 206.49C86.0215 207.822 85.6562 209.799 85.6562 212.42C85.6562 215.055 86.0286 217.032 86.7734 218.35C87.5326 219.653 88.5996 220.305 89.9746 220.305C90.8626 220.305 91.6576 219.99 92.3594 219.359C93.0612 218.715 93.5983 217.798 93.9707 216.609C94.3574 215.421 94.5508 213.974 94.5508 212.27ZM110.686 233.131C109.167 233.131 107.864 233.038 106.775 232.852V228.555L107.871 228.662L108.967 228.727C109.826 228.727 110.535 228.59 111.094 228.318C111.667 228.046 112.175 227.595 112.619 226.965C113.077 226.335 113.586 225.268 114.145 223.764L104.52 200.754H110.9L114.982 212.076C115.555 213.637 116.279 216.029 117.152 219.252L117.346 218.457L119.086 212.162L122.953 200.754H129.27L119.645 225.225C118.499 228.175 117.245 230.23 115.885 231.391C114.524 232.551 112.791 233.131 110.686 233.131Z" fill="#FC5C9C"/>
<path d="M209.299 228.727V226.664H235.896V228.727H209.299Z" fill="black"/>
<path d="M396.299 96.4297L413.938 64.1172H418.836L401.283 96.4297H396.299ZM449.15 160.43L466.789 128.117H471.688L454.135 160.43H449.15ZM132.041 224.43L149.68 192.117H154.578L137.025 224.43H132.041Z" fill="#C5E3F6"/>
</svg>
