<svg width="419" height="234" viewBox="0 0 419 234" fill="none" xmlns="http://www.w3.org/2000/svg">
<path d="M0.169922 20.9141V13.9961L22.2344 5.5957V10.4941L4.33789 17.4766L22.2344 24.4375V29.3145L0.169922 20.9141ZM132.299 29.3145V24.4375L150.174 17.4766L132.299 10.4941V5.5957L154.363 13.9961V20.9141L132.299 29.3145ZM53.0215 84.9141V77.9961L75.0859 69.5957V74.4941L57.1895 81.4766L75.0859 88.4375V93.3145L53.0215 84.9141ZM369.873 96.4297L387.512 64.1172H392.41L374.857 96.4297H369.873ZM396.557 93.3145V88.4375L414.432 81.4766L396.557 74.4941V69.5957L418.621 77.9961V84.9141L396.557 93.3145ZM53.0215 148.914V141.996L75.0859 133.596V138.494L57.1895 145.477L75.0859 152.438V157.314L53.0215 148.914ZM369.873 160.43L387.512 128.117H392.41L374.857 160.43H369.873ZM396.557 157.314V152.438L414.432 145.477L396.557 138.494V133.596L418.621 141.996V148.914L396.557 157.314ZM0.169922 212.914V205.996L22.2344 197.596V202.494L4.33789 209.477L22.2344 216.438V221.314L0.169922 212.914ZM26.3379 224.43L43.9766 192.117H48.875L31.3223 224.43H26.3379ZM158.725 221.314V216.438L176.6 209.477L158.725 202.494V197.596L180.789 205.996V212.914L158.725 221.314Z" fill="#22D1EE"/>
<path d="M27.4336 32C27.5482 30.0521 27.6055 28.362 27.6055 26.9297V0.117188H33.6426V8.58203L33.5996 12.4062H33.6426C34.2298 11.1029 35.1107 10.0931 36.2852 9.37695C37.474 8.66081 38.8633 8.30273 40.4531 8.30273C43.1172 8.30273 45.1654 9.35547 46.5977 11.4609C48.0299 13.5664 48.7461 16.5456 48.7461 20.3984C48.7461 24.0365 47.987 26.9512 46.4688 29.1426C44.9505 31.334 42.8809 32.4297 40.2598 32.4297C38.7702 32.4297 37.4596 32.0788 36.3281 31.377C35.2109 30.6608 34.3301 29.6081 33.6855 28.2188H33.5996C33.5996 28.6914 33.5638 29.3503 33.4922 30.1953C33.4349 31.026 33.3633 31.6276 33.2773 32H27.4336ZM33.5566 20.248C33.5566 21.9668 33.7428 23.4206 34.1152 24.6094C34.502 25.7982 35.0391 26.7148 35.7266 27.3594C36.4284 27.9896 37.2305 28.3047 38.1328 28.3047C39.5078 28.3047 40.5677 27.6458 41.3125 26.3281C42.0716 25.0104 42.4512 23.0339 42.4512 20.3984C42.4512 17.7773 42.0788 15.7936 41.334 14.4473C40.6035 13.0866 39.5221 12.4062 38.0898 12.4062C36.6862 12.4062 35.5762 13.0938 34.7598 14.4688C33.9577 15.8438 33.5566 17.7702 33.5566 20.248ZM75.2793 20.3555C75.2793 24.2083 74.3053 27.1875 72.3574 29.293C70.4095 31.3841 67.6094 32.4297 63.957 32.4297C60.4336 32.4297 57.6979 31.3841 55.75 29.293C53.8021 27.1875 52.8281 24.2083 52.8281 20.3555C52.8281 16.5169 53.7949 13.5521 55.7285 11.4609C57.6621 9.36979 60.4479 8.32422 64.0859 8.32422C71.5482 8.32422 75.2793 12.3346 75.2793 20.3555ZM68.9629 20.3555C68.9629 17.6055 68.5977 15.6074 67.8672 14.3613C67.1367 13.1009 65.9049 12.4707 64.1719 12.4707C62.3958 12.4707 61.1139 13.1009 60.3262 14.3613C59.5527 15.6217 59.166 17.6198 59.166 20.3555C59.166 23.1198 59.5599 25.1393 60.3477 26.4141C61.1497 27.6745 62.3314 28.3047 63.8926 28.3047C65.6686 28.3047 66.9577 27.6816 67.7598 26.4355C68.5618 25.1751 68.9629 23.1484 68.9629 20.3555ZM94.8301 32C94.7728 31.7852 94.7012 31.248 94.6152 30.3887C94.5436 29.515 94.5078 28.7917 94.5078 28.2188H94.4219C93.6628 29.7513 92.7246 30.8398 91.6074 31.4844C90.4902 32.1146 89.1654 32.4297 87.6328 32.4297C85.069 32.4297 83.0495 31.3555 81.5742 29.207C80.099 27.0586 79.3613 24.1296 79.3613 20.4199C79.3613 16.6243 80.099 13.6667 81.5742 11.5469C83.0638 9.42708 85.1621 8.36719 87.8691 8.36719C89.4017 8.36719 90.7337 8.7181 91.8652 9.41992C92.9967 10.1074 93.8633 11.1243 94.4648 12.4707H94.5078L94.4648 8.64648V0.117188H100.502V26.9297C100.502 28.362 100.559 30.0521 100.674 32H94.8301ZM94.5508 20.2695C94.5508 17.7917 94.1497 15.8724 93.3477 14.5117C92.5456 13.151 91.4355 12.4707 90.0176 12.4707C88.5853 12.4707 87.4967 13.1439 86.752 14.4902C86.0215 15.8223 85.6562 17.7988 85.6562 20.4199C85.6562 23.0553 86.0286 25.0319 86.7734 26.3496C87.5326 27.653 88.5996 28.3047 89.9746 28.3047C90.8626 28.3047 91.6576 27.9896 92.3594 27.3594C93.0612 26.7148 93.5983 25.7982 93.9707 24.6094C94.3574 23.4206 94.5508 21.974 94.5508 20.2695ZM110.686 41.1309C109.167 41.1309 107.864 41.0378 106.775 40.8516V36.5547L107.871 36.6621L108.967 36.7266C109.826 36.7266 110.535 36.5905 111.094 36.3184C111.667 36.0462 112.175 35.5951 112.619 34.9648C113.077 34.3346 113.586 33.2676 114.145 31.7637L104.52 8.75391H110.9L114.982 20.0762C115.555 21.6374 116.279 24.0293 117.152 27.252L117.346 26.457L119.086 20.1621L122.953 8.75391H129.27L119.645 33.2246C118.499 36.1751 117.245 38.2305 115.885 39.3906C114.524 40.5508 112.791 41.1309 110.686 41.1309ZM94.3789 96V83.668H86.5801V96H80.2422V67.0176H86.5801V78.4258H94.3789V67.0176H100.717V96H94.3789ZM117.152 96.4297C113.543 96.4297 110.757 95.3698 108.795 93.25C106.833 91.1159 105.852 88.1224 105.852 84.2695C105.852 81.6914 106.31 79.5143 107.227 77.7383C108.158 75.9622 109.475 74.6159 111.18 73.6992C112.884 72.7826 114.904 72.3242 117.238 72.3242C120.633 72.3242 123.268 73.4557 125.145 75.7188C127.021 77.9818 127.959 81.1973 127.959 85.3652V85.5371H112.189C112.189 87.6426 112.655 89.3112 113.586 90.543C114.531 91.7747 115.82 92.3906 117.453 92.3906C118.513 92.3906 119.451 92.1686 120.268 91.7246C121.084 91.2663 121.635 90.5645 121.922 89.6191L127.615 90.1133C126.827 92.1328 125.517 93.694 123.684 94.7969C121.85 95.8854 119.673 96.4297 117.152 96.4297ZM117.152 76.127C115.677 76.127 114.503 76.6283 113.629 77.6309C112.755 78.6191 112.29 79.9941 112.232 81.7559H122.115C122.015 80.0371 121.521 78.6693 120.633 77.6523C119.759 76.6354 118.599 76.127 117.152 76.127ZM147.188 91.918H154.771V96H132.664V91.918H141.15V68.1992H134.92V64.1172H147.188V91.918ZM173.613 91.918H181.197V96H159.09V91.918H167.576V68.1992H161.346V64.1172H173.613V91.918ZM207.408 84.3555C207.408 88.2083 206.434 91.1875 204.486 93.293C202.538 95.3841 199.738 96.4297 196.086 96.4297C192.562 96.4297 189.827 95.3841 187.879 93.293C185.931 91.1875 184.957 88.2083 184.957 84.3555C184.957 80.5169 185.924 77.5521 187.857 75.4609C189.791 73.3698 192.577 72.3242 196.215 72.3242C203.677 72.3242 207.408 76.3346 207.408 84.3555ZM201.092 84.3555C201.092 81.6055 200.727 79.6074 199.996 78.3613C199.266 77.1009 198.034 76.4707 196.301 76.4707C194.525 76.4707 193.243 77.1009 192.455 78.3613C191.682 79.6217 191.295 81.6198 191.295 84.3555C191.295 87.1198 191.689 89.1393 192.477 90.4141C193.279 91.6745 194.46 92.3047 196.021 92.3047C197.798 92.3047 199.087 91.6816 199.889 90.4355C200.691 89.1751 201.092 87.1484 201.092 84.3555ZM231.277 96H225.949L224.574 90.2637C223.858 87.5566 223.214 84.9141 222.641 82.3359L221.889 85.4941L220.943 89.2969L219.268 96H213.939L209.406 67.0176H214.971L216.883 81.9492C217.055 83.3242 217.169 85.2292 217.227 87.6641L217.549 86.0312L218.408 82.4219L220.535 75.1387H224.725L226.852 82.4219C227.038 83.0664 227.195 83.7038 227.324 84.334C227.467 84.9499 227.704 86.0599 228.033 87.6641L228.076 87.084C228.162 84.778 228.277 83.0664 228.42 81.9492L230.225 67.0176H235.789L231.277 96ZM260.26 84.3555C260.26 88.2083 259.286 91.1875 257.338 93.293C255.39 95.3841 252.59 96.4297 248.938 96.4297C245.414 96.4297 242.678 95.3841 240.73 93.293C238.783 91.1875 237.809 88.2083 237.809 84.3555C237.809 80.5169 238.775 77.5521 240.709 75.4609C242.643 73.3698 245.428 72.3242 249.066 72.3242C256.529 72.3242 260.26 76.3346 260.26 84.3555ZM253.943 84.3555C253.943 81.6055 253.578 79.6074 252.848 78.3613C252.117 77.1009 250.885 76.4707 249.152 76.4707C247.376 76.4707 246.094 77.1009 245.307 78.3613C244.533 79.6217 244.146 81.6198 244.146 84.3555C244.146 87.1198 244.54 89.1393 245.328 90.4141C246.13 91.6745 247.312 92.3047 248.873 92.3047C250.649 92.3047 251.938 91.6816 252.74 90.4355C253.542 89.1751 253.943 87.1484 253.943 84.3555ZM285.482 77.7812C283.878 77.5091 282.36 77.373 280.928 77.373C278.693 77.373 276.917 78.2181 275.6 79.9082C274.296 81.5983 273.645 83.8255 273.645 86.5898V96H267.629V80.9395C267.629 79.8509 267.529 78.569 267.328 77.0938C267.142 75.6185 266.87 74.1719 266.512 72.7539H272.334C272.85 74.6159 273.179 76.2487 273.322 77.6523H273.408C274.124 75.7044 275.091 74.3294 276.309 73.5273C277.526 72.7253 279.109 72.3242 281.057 72.3242C282.546 72.3242 284.021 72.446 285.482 72.6895V77.7812ZM305.742 91.918H313.326V96H291.219V91.918H299.705V68.1992H293.475V64.1172H305.742V91.918ZM332.662 96C332.605 95.7852 332.533 95.248 332.447 94.3887C332.376 93.515 332.34 92.7917 332.34 92.2188H332.254C331.495 93.7513 330.557 94.8398 329.439 95.4844C328.322 96.1146 326.997 96.4297 325.465 96.4297C322.901 96.4297 320.882 95.3555 319.406 93.207C317.931 91.0586 317.193 88.1296 317.193 84.4199C317.193 80.6243 317.931 77.6667 319.406 75.5469C320.896 73.4271 322.994 72.3672 325.701 72.3672C327.234 72.3672 328.566 72.7181 329.697 73.4199C330.829 74.1074 331.695 75.1243 332.297 76.4707H332.34L332.297 72.6465V64.1172H338.334V90.9297C338.334 92.362 338.391 94.0521 338.506 96H332.662ZM332.383 84.2695C332.383 81.7917 331.982 79.8724 331.18 78.5117C330.378 77.151 329.268 76.4707 327.85 76.4707C326.417 76.4707 325.329 77.1439 324.584 78.4902C323.854 79.8223 323.488 81.7988 323.488 84.4199C323.488 87.0553 323.861 89.0319 324.605 90.3496C325.365 91.653 326.432 92.3047 327.807 92.3047C328.695 92.3047 329.49 91.9896 330.191 91.3594C330.893 90.7148 331.43 89.7982 331.803 88.6094C332.189 87.4206 332.383 85.974 332.383 84.2695ZM81.8105 160V131.018H88.1484V155.102H101.383V160H81.8105ZM128.131 148.355C128.131 152.208 127.157 155.188 125.209 157.293C123.261 159.384 120.461 160.43 116.809 160.43C113.285 160.43 110.549 159.384 108.602 157.293C106.654 155.188 105.68 152.208 105.68 148.355C105.68 144.517 106.646 141.552 108.58 139.461C110.514 137.37 113.299 136.324 116.938 136.324C124.4 136.324 128.131 140.335 128.131 148.355ZM121.814 148.355C121.814 145.605 121.449 143.607 120.719 142.361C119.988 141.101 118.757 140.471 117.023 140.471C115.247 140.471 113.965 141.101 113.178 142.361C112.404 143.622 112.018 145.62 112.018 148.355C112.018 151.12 112.411 153.139 113.199 154.414C114.001 155.674 115.183 156.305 116.744 156.305C118.52 156.305 119.809 155.682 120.611 154.436C121.413 153.175 121.814 151.148 121.814 148.355ZM146.758 160H139.539L130.795 136.754H137.176L141.666 150.117C141.881 150.833 142.389 152.624 143.191 155.488C143.277 155.145 143.535 154.235 143.965 152.76C144.409 151.27 146.235 145.935 149.443 136.754H155.76L146.758 160ZM170.004 160.43C166.395 160.43 163.609 159.37 161.646 157.25C159.684 155.116 158.703 152.122 158.703 148.27C158.703 145.691 159.161 143.514 160.078 141.738C161.009 139.962 162.327 138.616 164.031 137.699C165.736 136.783 167.755 136.324 170.09 136.324C173.484 136.324 176.12 137.456 177.996 139.719C179.872 141.982 180.811 145.197 180.811 149.365V149.537H165.041C165.041 151.643 165.507 153.311 166.438 154.543C167.383 155.775 168.672 156.391 170.305 156.391C171.365 156.391 172.303 156.169 173.119 155.725C173.936 155.266 174.487 154.564 174.773 153.619L180.467 154.113C179.679 156.133 178.368 157.694 176.535 158.797C174.702 159.885 172.525 160.43 170.004 160.43ZM170.004 140.127C168.529 140.127 167.354 140.628 166.48 141.631C165.607 142.619 165.141 143.994 165.084 145.756H174.967C174.867 144.037 174.372 142.669 173.484 141.652C172.611 140.635 171.451 140.127 170.004 140.127ZM191.145 145.369C191.145 148.592 191.646 151.077 192.648 152.824C193.651 154.572 195.148 155.445 197.139 155.445C199.459 155.445 201.178 153.698 202.295 150.203L208.16 151.32C206.255 157.393 202.56 160.43 197.074 160.43C193.049 160.43 189.977 159.155 187.857 156.605C185.752 154.042 184.699 150.296 184.699 145.369C184.699 135.501 188.767 130.566 196.902 130.566C199.566 130.566 201.794 131.268 203.584 132.672C205.389 134.076 206.714 136.16 207.559 138.924L201.715 140.342C201.299 138.824 200.676 137.649 199.846 136.818C199.015 135.973 198.062 135.551 196.988 135.551C193.092 135.551 191.145 138.824 191.145 145.369ZM233.834 148.355C233.834 152.208 232.86 155.188 230.912 157.293C228.964 159.384 226.164 160.43 222.512 160.43C218.988 160.43 216.253 159.384 214.305 157.293C212.357 155.188 211.383 152.208 211.383 148.355C211.383 144.517 212.35 141.552 214.283 139.461C216.217 137.37 219.003 136.324 222.641 136.324C230.103 136.324 233.834 140.335 233.834 148.355ZM227.518 148.355C227.518 145.605 227.152 143.607 226.422 142.361C225.691 141.101 224.46 140.471 222.727 140.471C220.951 140.471 219.669 141.101 218.881 142.361C218.107 143.622 217.721 145.62 217.721 148.355C217.721 151.12 218.115 153.139 218.902 154.414C219.704 155.674 220.886 156.305 222.447 156.305C224.223 156.305 225.512 155.682 226.314 154.436C227.117 153.175 227.518 151.148 227.518 148.355ZM253.385 160C253.327 159.785 253.256 159.248 253.17 158.389C253.098 157.515 253.062 156.792 253.062 156.219H252.977C252.217 157.751 251.279 158.84 250.162 159.484C249.045 160.115 247.72 160.43 246.188 160.43C243.624 160.43 241.604 159.355 240.129 157.207C238.654 155.059 237.916 152.13 237.916 148.42C237.916 144.624 238.654 141.667 240.129 139.547C241.618 137.427 243.717 136.367 246.424 136.367C247.956 136.367 249.288 136.718 250.42 137.42C251.551 138.107 252.418 139.124 253.02 140.471H253.062L253.02 136.646V128.117H259.057V154.93C259.057 156.362 259.114 158.052 259.229 160H253.385ZM253.105 148.27C253.105 145.792 252.704 143.872 251.902 142.512C251.1 141.151 249.99 140.471 248.572 140.471C247.14 140.471 246.051 141.144 245.307 142.49C244.576 143.822 244.211 145.799 244.211 148.42C244.211 151.055 244.583 153.032 245.328 154.35C246.087 155.653 247.154 156.305 248.529 156.305C249.417 156.305 250.212 155.99 250.914 155.359C251.616 154.715 252.153 153.798 252.525 152.609C252.912 151.421 253.105 149.974 253.105 148.27ZM279.316 155.918H286.9V160H264.793V155.918H273.279V140.836H267.049V136.754H279.316V155.918ZM273.279 132.564V128.117H279.316V132.564H273.279ZM306.387 160V146.701C306.387 144.682 306.107 143.199 305.549 142.254C305.005 141.309 304.059 140.836 302.713 140.836C301.223 140.836 300.027 141.473 299.125 142.748C298.237 144.008 297.793 145.605 297.793 147.539V160H291.756V141.953C291.756 140.707 291.734 139.69 291.691 138.902C291.663 138.1 291.627 137.384 291.584 136.754H297.342C297.385 137.026 297.442 137.757 297.514 138.945C297.585 140.12 297.621 140.929 297.621 141.373H297.707C298.523 139.597 299.548 138.308 300.779 137.506C302.011 136.704 303.479 136.303 305.184 136.303C309.996 136.303 312.402 139.282 312.402 145.24V160H306.387ZM328.344 169.324C325.68 169.324 323.51 168.773 321.834 167.67C320.158 166.567 319.127 165.035 318.74 163.072L324.777 162.363C324.992 163.294 325.436 164.032 326.109 164.576C326.783 165.12 327.585 165.393 328.516 165.393C329.962 165.393 331.058 164.87 331.803 163.824C332.548 162.793 332.92 161.253 332.92 159.205V157.938L332.963 155.467H332.92C331.588 158.317 329.239 159.742 325.873 159.742C323.309 159.742 321.318 158.747 319.9 156.756C318.482 154.751 317.773 151.893 317.773 148.184C317.773 144.431 318.511 141.531 319.986 139.482C321.462 137.42 323.574 136.389 326.324 136.389C327.828 136.389 329.146 136.74 330.277 137.441C331.409 138.129 332.29 139.146 332.92 140.492H333.027C333.027 139.991 333.056 139.311 333.113 138.451C333.185 137.592 333.257 137.026 333.328 136.754H339.043C338.957 138.301 338.914 140.091 338.914 142.125V159.291C338.914 162.542 337.997 165.027 336.164 166.746C334.345 168.465 331.738 169.324 328.344 169.324ZM332.963 148.055C332.963 145.706 332.562 143.865 331.76 142.533C330.958 141.201 329.862 140.535 328.473 140.535C327.04 140.535 325.945 141.187 325.186 142.49C324.441 143.779 324.068 145.677 324.068 148.184C324.068 150.676 324.455 152.531 325.229 153.748C326.002 154.951 327.069 155.553 328.43 155.553C329.891 155.553 331.008 154.88 331.781 153.533C332.569 152.187 332.963 150.361 332.963 148.055ZM53.8594 224C53.974 222.052 54.0312 220.362 54.0312 218.93V192.117H60.0684V200.582L60.0254 204.406H60.0684C60.6556 203.103 61.5365 202.093 62.7109 201.377C63.8997 200.661 65.2891 200.303 66.8789 200.303C69.543 200.303 71.5911 201.355 73.0234 203.461C74.4557 205.566 75.1719 208.546 75.1719 212.398C75.1719 216.036 74.4128 218.951 72.8945 221.143C71.3763 223.334 69.3066 224.43 66.6855 224.43C65.196 224.43 63.8854 224.079 62.7539 223.377C61.6367 222.661 60.7559 221.608 60.1113 220.219H60.0254C60.0254 220.691 59.9896 221.35 59.918 222.195C59.8607 223.026 59.7891 223.628 59.7031 224H53.8594ZM59.9824 212.248C59.9824 213.967 60.1686 215.421 60.541 216.609C60.9277 217.798 61.4648 218.715 62.1523 219.359C62.8542 219.99 63.6562 220.305 64.5586 220.305C65.9336 220.305 66.9935 219.646 67.7383 218.328C68.4974 217.01 68.877 215.034 68.877 212.398C68.877 209.777 68.5046 207.794 67.7598 206.447C67.0293 205.087 65.9479 204.406 64.5156 204.406C63.112 204.406 62.002 205.094 61.1855 206.469C60.3835 207.844 59.9824 209.77 59.9824 212.248ZM101.705 212.355C101.705 216.208 100.731 219.188 98.7832 221.293C96.8353 223.384 94.0352 224.43 90.3828 224.43C86.8594 224.43 84.1237 223.384 82.1758 221.293C80.2279 219.188 79.2539 216.208 79.2539 212.355C79.2539 208.517 80.2207 205.552 82.1543 203.461C84.0879 201.37 86.8737 200.324 90.5117 200.324C97.974 200.324 101.705 204.335 101.705 212.355ZM95.3887 212.355C95.3887 209.605 95.0234 207.607 94.293 206.361C93.5625 205.101 92.3307 204.471 90.5977 204.471C88.8216 204.471 87.5397 205.101 86.752 206.361C85.9785 207.622 85.5918 209.62 85.5918 212.355C85.5918 215.12 85.9857 217.139 86.7734 218.414C87.5755 219.674 88.7572 220.305 90.3184 220.305C92.0944 220.305 93.3835 219.682 94.1855 218.436C94.9876 217.175 95.3887 215.148 95.3887 212.355ZM121.256 224C121.199 223.785 121.127 223.248 121.041 222.389C120.969 221.515 120.934 220.792 120.934 220.219H120.848C120.089 221.751 119.15 222.84 118.033 223.484C116.916 224.115 115.591 224.43 114.059 224.43C111.495 224.43 109.475 223.355 108 221.207C106.525 219.059 105.787 216.13 105.787 212.42C105.787 208.624 106.525 205.667 108 203.547C109.49 201.427 111.588 200.367 114.295 200.367C115.827 200.367 117.16 200.718 118.291 201.42C119.423 202.107 120.289 203.124 120.891 204.471H120.934L120.891 200.646V192.117H126.928V218.93C126.928 220.362 126.985 222.052 127.1 224H121.256ZM120.977 212.27C120.977 209.792 120.576 207.872 119.773 206.512C118.971 205.151 117.861 204.471 116.443 204.471C115.011 204.471 113.923 205.144 113.178 206.49C112.447 207.822 112.082 209.799 112.082 212.42C112.082 215.055 112.454 217.032 113.199 218.35C113.958 219.653 115.025 220.305 116.4 220.305C117.288 220.305 118.083 219.99 118.785 219.359C119.487 218.715 120.024 217.798 120.396 216.609C120.783 215.421 120.977 213.974 120.977 212.27ZM137.111 233.131C135.593 233.131 134.29 233.038 133.201 232.852V228.555L134.297 228.662L135.393 228.727C136.252 228.727 136.961 228.59 137.52 228.318C138.092 228.046 138.601 227.595 139.045 226.965C139.503 226.335 140.012 225.268 140.57 223.764L130.945 200.754H137.326L141.408 212.076C141.981 213.637 142.704 216.029 143.578 219.252L143.771 218.457L145.512 212.162L149.379 200.754H155.695L146.07 225.225C144.924 228.175 143.671 230.23 142.311 231.391C140.95 232.551 139.217 233.131 137.111 233.131Z" fill="#FC5C9C"/>
<path d="M209.299 228.727V226.664H235.896V228.727H209.299Z" fill="black"/>
</svg>
