<svg width="454" height="100" viewBox="0 0 454 100" fill="none" xmlns="http://www.w3.org/2000/svg">
<path d="M64.6719 63H40.0391V58.1016L55.7656 36.7969H41.8203V31.3828H63.7109V36.1875L47.9844 57.5859H64.6719V63ZM72.3172 63.4688C69.8641 63.4688 67.95 62.8047 66.575 61.4766C65.2 60.1328 64.5125 58.25 64.5125 55.8281C64.5125 53.2031 65.325 51.2109 66.95 49.8516C68.5906 48.4766 71.0359 47.7656 74.2859 47.7188L79.5125 47.625V46.3359C79.5125 44.7266 79.2391 43.5078 78.6922 42.6797C78.1453 41.8516 77.2625 41.4375 76.0438 41.4375C74.9031 41.4375 74.0594 41.7266 73.5125 42.3047C72.9813 42.8672 72.6531 43.7734 72.5281 45.0234L65.6609 44.6953C66.5047 39.6797 70.0594 37.1719 76.325 37.1719C79.4813 37.1719 81.8953 37.9453 83.5672 39.4922C85.2547 41.0391 86.0984 43.3125 86.0984 46.3125V55.5C86.0984 56.9219 86.2547 57.9062 86.5672 58.4531C86.8953 58.9844 87.4344 59.25 88.1844 59.25C88.6844 59.25 89.1688 59.2031 89.6375 59.1094V62.6719C89.2469 62.7656 88.8953 62.8516 88.5828 62.9297C88.2703 63.0078 87.9578 63.0703 87.6453 63.1172C87.3328 63.1641 86.9969 63.2031 86.6375 63.2344C86.2938 63.2656 85.8875 63.2812 85.4188 63.2812C83.7625 63.2812 82.5359 62.875 81.7391 62.0625C80.9578 61.25 80.4891 60.0547 80.3328 58.4766H80.1922C79.2078 60.2422 78.0828 61.5156 76.8172 62.2969C75.5672 63.0781 74.0672 63.4688 72.3172 63.4688ZM79.5125 51.2578L76.3719 51.3047C74.9656 51.3359 73.9422 51.4844 73.3016 51.75C72.6766 52 72.2 52.4141 71.8719 52.9922C71.5438 53.5547 71.3797 54.3281 71.3797 55.3125C71.3797 57.6875 72.3172 58.875 74.1922 58.875C75.7078 58.875 76.9734 58.2812 77.9891 57.0938C79.0047 55.8906 79.5125 54.375 79.5125 52.5469V51.2578ZM106.306 63L99.5328 51.5156L96.6969 53.4844V63H90.1109V28.2188H96.6969V48.1406L105.744 37.6406H112.822L103.916 47.5312L113.502 63H106.306ZM135.42 43.125C133.67 42.8281 132.014 42.6797 130.452 42.6797C128.014 42.6797 126.077 43.6016 124.639 45.4453C123.217 47.2891 122.506 49.7188 122.506 52.7344V63H115.944V46.5703C115.944 45.3828 115.834 43.9844 115.616 42.375C115.412 40.7656 115.116 39.1875 114.725 37.6406H121.077C121.639 39.6719 121.998 41.4531 122.155 42.9844H122.248C123.03 40.8594 124.084 39.3594 125.412 38.4844C126.741 37.6094 128.467 37.1719 130.592 37.1719C132.217 37.1719 133.827 37.3047 135.42 37.5703V43.125ZM152.722 58.5469H160.995V63H136.878V58.5469H146.136V42.0938H139.339V37.6406H152.722V58.5469ZM146.136 33.0703V28.2188H152.722V33.0703H146.136ZM168.43 63.4688C165.977 63.4688 164.062 62.8047 162.688 61.4766C161.312 60.1328 160.625 58.25 160.625 55.8281C160.625 53.2031 161.438 51.2109 163.062 49.8516C164.703 48.4766 167.148 47.7656 170.398 47.7188L175.625 47.625V46.3359C175.625 44.7266 175.352 43.5078 174.805 42.6797C174.258 41.8516 173.375 41.4375 172.156 41.4375C171.016 41.4375 170.172 41.7266 169.625 42.3047C169.094 42.8672 168.766 43.7734 168.641 45.0234L161.773 44.6953C162.617 39.6797 166.172 37.1719 172.438 37.1719C175.594 37.1719 178.008 37.9453 179.68 39.4922C181.367 41.0391 182.211 43.3125 182.211 46.3125V55.5C182.211 56.9219 182.367 57.9062 182.68 58.4531C183.008 58.9844 183.547 59.25 184.297 59.25C184.797 59.25 185.281 59.2031 185.75 59.1094V62.6719C185.359 62.7656 185.008 62.8516 184.695 62.9297C184.383 63.0078 184.07 63.0703 183.758 63.1172C183.445 63.1641 183.109 63.2031 182.75 63.2344C182.406 63.2656 182 63.2812 181.531 63.2812C179.875 63.2812 178.648 62.875 177.852 62.0625C177.07 61.25 176.602 60.0547 176.445 58.4766H176.305C175.32 60.2422 174.195 61.5156 172.93 62.2969C171.68 63.0781 170.18 63.4688 168.43 63.4688ZM175.625 51.2578L172.484 51.3047C171.078 51.3359 170.055 51.4844 169.414 51.75C168.789 52 168.312 52.4141 167.984 52.9922C167.656 53.5547 167.492 54.3281 167.492 55.3125C167.492 57.6875 168.43 58.875 170.305 58.875C171.82 58.875 173.086 58.2812 174.102 57.0938C175.117 55.8906 175.625 54.375 175.625 52.5469V51.2578ZM227.478 63V42.6562C227.478 41.0156 227.603 38.6641 227.853 35.6016C226.931 40.1328 226.345 42.7969 226.095 43.5938L223.189 54.5625H218.08L215.127 43.5938C214.673 41.9062 214.08 39.2422 213.345 35.6016L213.509 37.9453C213.619 39.5859 213.673 41.1562 213.673 42.6562V63H208.517V31.3828H216.65L219.814 43.0781C220.048 43.8125 220.345 45.6172 220.705 48.4922C221.017 46.0703 221.33 44.2734 221.642 43.1016L224.83 31.3828H232.681V63H227.478ZM256.873 50.2969C256.873 54.5 255.811 57.75 253.686 60.0469C251.561 62.3281 248.506 63.4688 244.522 63.4688C240.678 63.4688 237.694 62.3281 235.569 60.0469C233.444 57.75 232.381 54.5 232.381 50.2969C232.381 46.1094 233.436 42.875 235.545 40.5938C237.655 38.3125 240.694 37.1719 244.663 37.1719C252.803 37.1719 256.873 41.5469 256.873 50.2969ZM249.983 50.2969C249.983 47.2969 249.584 45.1172 248.788 43.7578C247.991 42.3828 246.647 41.6953 244.756 41.6953C242.819 41.6953 241.42 42.3828 240.561 43.7578C239.717 45.1328 239.295 47.3125 239.295 50.2969C239.295 53.3125 239.725 55.5156 240.584 56.9062C241.459 58.2812 242.748 58.9688 244.452 58.9688C246.389 58.9688 247.795 58.2891 248.67 56.9297C249.545 55.5547 249.983 53.3438 249.983 50.2969ZM280.128 55.5938C280.128 58.0469 279.12 59.9766 277.105 61.3828C275.105 62.7734 272.331 63.4688 268.784 63.4688C265.3 63.4688 262.628 62.9219 260.769 61.8281C258.925 60.7188 257.698 59 257.089 56.6719L262.878 55.8047C263.206 57.0078 263.769 57.8594 264.566 58.3594C265.378 58.8594 266.784 59.1094 268.784 59.1094C270.628 59.1094 271.972 58.875 272.816 58.4062C273.659 57.9375 274.081 57.2031 274.081 56.2031C274.081 55.3906 273.738 54.75 273.05 54.2812C272.378 53.7969 271.23 53.3906 269.605 53.0625C265.886 52.3281 263.378 51.6484 262.081 51.0234C260.784 50.3828 259.792 49.5625 259.105 48.5625C258.433 47.5469 258.097 46.3047 258.097 44.8359C258.097 42.4141 259.027 40.5312 260.886 39.1875C262.761 37.8281 265.409 37.1484 268.831 37.1484C271.847 37.1484 274.269 37.7344 276.097 38.9062C277.941 40.0781 279.089 41.7734 279.542 43.9922L273.706 44.6016C273.519 43.5703 273.058 42.8047 272.323 42.3047C271.589 41.7891 270.425 41.5312 268.831 41.5312C267.269 41.5312 266.097 41.7344 265.316 42.1406C264.534 42.5312 264.144 43.1953 264.144 44.1328C264.144 44.8672 264.441 45.4531 265.034 45.8906C265.644 46.3125 266.659 46.6641 268.081 46.9453C270.066 47.3516 271.823 47.7734 273.355 48.2109C274.902 48.6328 276.136 49.1406 277.058 49.7344C277.995 50.3281 278.738 51.0938 279.284 52.0312C279.847 52.9531 280.128 54.1406 280.128 55.5938ZM281.562 63C281.688 60.875 281.75 59.0312 281.75 57.4688V28.2188H288.336V37.4531L288.289 41.625H288.336C288.977 40.2031 289.938 39.1016 291.219 38.3203C292.516 37.5391 294.031 37.1484 295.766 37.1484C298.672 37.1484 300.906 38.2969 302.469 40.5938C304.031 42.8906 304.812 46.1406 304.812 50.3438C304.812 54.3125 303.984 57.4922 302.328 59.8828C300.672 62.2734 298.414 63.4688 295.555 63.4688C293.93 63.4688 292.5 63.0859 291.266 62.3203C290.047 61.5391 289.086 60.3906 288.383 58.875H288.289C288.289 59.3906 288.25 60.1094 288.172 61.0312C288.109 61.9375 288.031 62.5938 287.938 63H281.562ZM288.242 50.1797C288.242 52.0547 288.445 53.6406 288.852 54.9375C289.273 56.2344 289.859 57.2344 290.609 57.9375C291.375 58.625 292.25 58.9688 293.234 58.9688C294.734 58.9688 295.891 58.25 296.703 56.8125C297.531 55.375 297.945 53.2188 297.945 50.3438C297.945 47.4844 297.539 45.3203 296.727 43.8516C295.93 42.3672 294.75 41.625 293.188 41.625C291.656 41.625 290.445 42.375 289.555 43.875C288.68 45.375 288.242 47.4766 288.242 50.1797ZM312.598 63.4688C310.145 63.4688 308.231 62.8047 306.856 61.4766C305.481 60.1328 304.794 58.25 304.794 55.8281C304.794 53.2031 305.606 51.2109 307.231 49.8516C308.872 48.4766 311.317 47.7656 314.567 47.7188L319.794 47.625V46.3359C319.794 44.7266 319.52 43.5078 318.973 42.6797C318.427 41.8516 317.544 41.4375 316.325 41.4375C315.184 41.4375 314.341 41.7266 313.794 42.3047C313.263 42.8672 312.934 43.7734 312.809 45.0234L305.942 44.6953C306.786 39.6797 310.341 37.1719 316.606 37.1719C319.763 37.1719 322.177 37.9453 323.848 39.4922C325.536 41.0391 326.38 43.3125 326.38 46.3125V55.5C326.38 56.9219 326.536 57.9062 326.848 58.4531C327.177 58.9844 327.716 59.25 328.466 59.25C328.966 59.25 329.45 59.2031 329.919 59.1094V62.6719C329.528 62.7656 329.177 62.8516 328.864 62.9297C328.552 63.0078 328.239 63.0703 327.927 63.1172C327.614 63.1641 327.278 63.2031 326.919 63.2344C326.575 63.2656 326.169 63.2812 325.7 63.2812C324.044 63.2812 322.817 62.875 322.02 62.0625C321.239 61.25 320.77 60.0547 320.614 58.4766H320.473C319.489 60.2422 318.364 61.5156 317.098 62.2969C315.848 63.0781 314.348 63.4688 312.598 63.4688ZM319.794 51.2578L316.653 51.3047C315.247 51.3359 314.223 51.4844 313.583 51.75C312.958 52 312.481 52.4141 312.153 52.9922C311.825 53.5547 311.661 54.3281 311.661 55.3125C311.661 57.6875 312.598 58.875 314.473 58.875C315.989 58.875 317.255 58.2812 318.27 57.0938C319.286 55.8906 319.794 54.375 319.794 52.5469V51.2578ZM336.181 42.7031C337.072 40.7656 338.189 39.3594 339.533 38.4844C340.877 37.6094 342.478 37.1719 344.337 37.1719C346.962 37.1719 348.931 37.9688 350.244 39.5625C351.556 41.1562 352.212 43.6094 352.212 46.9219V63H345.65V48.4453C345.65 46.0859 345.33 44.4453 344.689 43.5234C344.064 42.5859 343.033 42.1172 341.595 42.1172C340.002 42.1172 338.712 42.8047 337.728 44.1797C336.759 45.5391 336.275 47.2891 336.275 49.4297V63H329.689V28.2188H336.275V37.7109C336.275 39.4141 336.212 41.0781 336.087 42.7031H336.181ZM368.975 58.5469H377.248V63H353.131V58.5469H362.389V42.0938H355.592V37.6406H368.975V58.5469ZM362.389 33.0703V28.2188H368.975V33.0703H362.389Z" fill="#22D1EE"/>
<path d="M2.36719 50.9062V43.3594L26.4375 34.1953V39.5391L6.91406 47.1562L26.4375 54.75V60.0703L2.36719 50.9062Z" fill="#22D1EE"/>
<path d="M436.633 44.0938V51.6406L412.563 60.8047V55.4609L432.086 47.8438L412.563 40.25V34.9297L436.633 44.0938Z" fill="#22D1EE"/>
<path d="M412.886 31.5313L393.644 66.7813H388.3L407.448 31.5313H412.886Z" fill="#FC5C9C"/>
</svg>
